<svg id="Capa_1" enable-background="new 0 0 512 512" viewBox="0 0 512 512" xmlns="http://www.w3.org/2000/svg">
  <g>
    <path d="m58.187 48.734h316.121v-48.734h-316.121v9.367h-46.988v30h46.988z" fill="#4299e1"/>
    <path d="m101.218 234.009c1.997 10.23 4.251 20.415 6.782 30.54l3.299 13.195h168.371c1.25-42.886 24.375-81.745 60.199-103.604.666-7.212 1.205-14.437 1.611-21.671h-250.465c.969 17.25 2.686 34.446 5.131 51.54h-10.482c-24.374 0-44.204-19.829-44.204-44.203s19.83-44.204 44.204-44.204h4.39v3.169c0 1.233.021 2.466.028 3.698h252.331c.008-1.233.028-2.465.028-3.698v-40.037h-252.387v6.867h-4.39c-40.916 0-74.204 33.288-74.204 74.204s33.288 74.203 74.204 74.203h15.554z" fill="#4299e1"/>
    <circle cx="216.248" cy="388.345" r="16.867" fill="#4299e1"/>
    <path d="m500.801 281.403c0-41.625-26.605-77.029-63.734-90.154v83.171h-63.734v-83.171c-37.13 13.125-63.734 48.53-63.734 90.154s26.605 77.029 63.734 90.154l-13.301 87.928c-4.182 27.637 17.216 52.515 45.167 52.515 27.951 0 49.349-24.878 45.168-52.515l-13.301-87.928c37.13-13.124 63.735-48.529 63.735-90.154z" fill="#4299e1"/>
    <path d="m326.849 403.345h-30v-30h22.826c-18.681-17.418-31.818-40.298-37.263-65.601h-171.113l-25.58 24.98c-18.422 17.99-28.808 42.649-28.808 68.398v67.826h272.674c-.159-4.627.079-9.293.783-13.948l9.986-66.014c-4.729-2.855-9.235-6.009-13.505-9.426zm-191.203 0h-30v-30h30zm80.602 31.867c-25.843 0-46.867-21.024-46.867-46.867s21.024-46.867 46.867-46.867 46.867 21.024 46.867 46.867-21.025 46.867-46.867 46.867z" fill="#4299e1"/>
  </g>
</svg>
