<svg enable-background="new 0 0 32 32" viewBox="0 0 32 32" xmlns="http://www.w3.org/2000/svg">
  <g id="Layer_1">
    <path d="m24.3195 8.041-9.3832 6.4542c-.0475-.0695-.0906-.1418-.1581-.1987l-2.7416-2.3038c.1938-.4925.3091-1.0247.3091-1.5851 0-2.3996-1.9521-4.3522-4.3517-4.3522s-4.3517 1.9526-4.3517 4.3522 1.9521 4.3517 4.3517 4.3517c1.1506 0 2.1912-.457 2.9702-1.1888l2.5907 2.1769c.0015.161.0034.33.0055.5028-.001.0008-.0023.0009-.0032.0017l-2.7299 2.2939c-.7878-.7871-1.8751-1.2747-3.0741-1.2747-2.3996 0-4.3517 1.9521-4.3517 4.3517s1.9521 4.3522 4.3517 4.3522 4.3517-1.9526 4.3517-4.3522c0-.5101-.1045-.9926-.2665-1.4478l2.9399-2.4703c.048-.0405.0746-.0943.1125-.1415.1746-.1618.3381-.3209.4633-.4588.3897-.4295.5742-.7648.7495-1.1035h2.358c.4414 0 .8724-.1345 1.2354-.3857l9.6603-6.6823c-1.0153-2.0209-3.0171-1.9071-5.0378-.8919zm-16.3255 4.8208c-1.3531 0-2.4542-1.1011-2.4542-2.4542 0-1.3536 1.1011-2.4548 2.4542-2.4548s2.4543 1.1011 2.4543 2.4548c-.0001 1.3531-1.1012 2.4542-2.4543 2.4542zm-.2409 11.2157c-1.3531 0-2.4543-1.1011-2.4543-2.4548 0-1.3531 1.1011-2.4542 2.4543-2.4542 1.3531 0 2.4542 1.1011 2.4542 2.4542 0 1.3536-1.1011 2.4548-2.4542 2.4548z" fill="#4299e1"/>
    <path d="m20.3593 17.1992-3.1249.2851c-.683.0623-.9096.9476-.3406 1.3304l8.3554 5.6202c1.5085.759 3.3491.1518 4.108-1.3567l-8.1766-5.6628c-.2399-.1662-.5307-.2427-.8213-.2162z" fill="#4299e1"/>
  </g>
</svg>
