<svg id="Layer_3" enable-background="new 0 0 60 60" height="512" viewBox="0 0 60 60" width="512" xmlns="http://www.w3.org/2000/svg">
  <path fill="#4299e1" d="m44.4107666 51.4804688c2.1222534 0 3.8492432-1.7269897 3.8492432-3.8406372 0-1.7871094-2.5776367-6.4612427-3.0931396-7.3806152-.3092651-.5412598-1.1942749-.5412598-1.5036011 0-.5155029.9193726-3.0931396 5.5935059-3.0931396 7.3806152-.0000001 2.1136474 1.7269896 3.8406372 3.8406371 3.8406372z"/>
  <path fill="#4299e1" d="m10.7346802 39.2141113c.4744873 0 .8591919-.3847046.8591919-.8591919v-5.7941894h8.1044922c.0373535.8959961.781189 1.6239014 1.6856689 1.6239014h11.3930664c.9044189 0 1.6400757-.7279053 1.677063-1.6239014h4.1311646v4.1585693c0 .4725342.3866577.8591919.8591919.8591919h9.8208008c.4725342 0 .8591919-.3866577.8591919-.8591919v-7.750061c0-4.3733521-3.5657349-7.9390869-7.9476318-7.9390869h-7.7227173c-.0369873-.8954468-.7727051-1.6152954-1.677063-1.6152954h-3.0502319v-4.6741333c.3952637.1375122.7819214.3179321 1.1599731.5671387.5842896.3694458 1.2630005.5584717 1.9504395.5584717 1.0911255 0 2.1135864-.4725952 2.8181763-1.3145752.6959229-.8334961.9880981-1.9332275.7990112-3.0244141-.2577515-1.4692993-1.4691772-2.6807251-2.9470215-2.9470825-.2234497-.0429688-.4553833-.0601807-.678772-.0601807-.7733154 0-1.512207.2406006-2.1480103.7045898-.7905273.5756226-1.7957764.7045288-2.5003662.7045288h-2.2081299c-.7045898 0-1.7098389-.1289063-2.5003052-.7045288-.8076172-.6015015-1.8129272-.8248901-2.8267822-.6444092-1.4692383.2663574-2.6807861 1.4777832-2.9385376 2.9470825-.1975708 1.0911865.0946045 2.190918.7990723 3.0244141.6959839.84198 1.7270508 1.3145752 2.8182373 1.3145752.6873779 0 1.3575439-.1890259 1.9418335-.5584717.3866577-.2492065.7732544-.4296265 1.1685181-.5671387v4.6741333h-3.0501709c-.9044189 0-1.6482544.7198486-1.6856689 1.6152954h-8.1044922v-5.791626c0-.4744873-.3847046-.8591919-.8591919-.8591919s-.8591919.3847046-.8591919.8591919v23.116394c-.0000001.4744874.3847045.859192.8591918.859192z"/>
</svg>
