<svg fill="none" height="512" viewBox="0 0 24 24" width="512" xmlns="http://www.w3.org/2000/svg">
  <path d="m21 15v-2h-3.07c-.05-.39-.12-.77-.22-1.14l2.58-1.49-1-1.72999-2.37 1.35999c-.28-.47999-.62-.90999-.99-1.28999.04-.23.07-.46.07-.71 0-.8-.24-1.55-.65-2.18l1.65-1.65-1.41-1.41-1.72 1.72c-1.68-.89-3.1-.33-3.73 0l-1.73-1.72-1.41 1.41 1.65 1.65c-.41.63-.65 1.38-.65 2.18 0 .25.03.48.07.72-.37.38-.71.81-.99 1.27999l-2.37-1.36999-1 1.72999 2.58 1.49c-.1.37-.17.75-.22 1.14h-3.07v2h3.07c.05.39.12.77.22 1.14l-2.58 1.49 1 1.73 2.37-1.35c1.08 1.81 2.88 3 4.92 3s3.84-1.19 4.92-3l2.37 1.37 1-1.73-2.58-1.49c.1-.37.17-.75.22-1.14h3.07zm-8 2h-2v-6h2z" fill="#4299e1"/>
</svg>
